<svg version="1.1" id="Layer_1" xmlns="http://www.w3.org/2000/svg" xmlns:xlink="http://www.w3.org/1999/xlink" x="0px" y="0px"
	 width="100%" viewBox="0 0 383 306" enable-background="new 0 0 383 306" xml:space="preserve">
<path fill="#33CD33" opacity="1.000000" stroke="none" 
	d="
M1.000002,287.000000 
	C1.000000,198.645233 1.000000,110.290474 1.325654,21.715460 
	C5.533890,13.036395 11.288430,6.377654 19.886827,2.409929 
	C20.096727,2.313071 19.969818,1.486323 20.000000,1.000000 
	C134.354767,1.000000 248.709534,1.000000 363.285889,1.326608 
	C372.414612,5.688587 379.168365,11.857336 382.853424,21.099556 
	C382.894440,21.202410 383.603027,21.039082 384.000000,21.000002 
	C384.000000,109.354767 384.000000,197.709534 383.684509,286.269562 
	C378.995911,294.474365 374.010803,301.882538 365.119904,305.587097 
	C364.918610,305.670929 365.032928,306.512085 365.000000,307.000000 
	C250.311905,307.000000 135.623810,307.000000 20.782143,306.719482 
	C13.582008,302.345123 7.425299,297.345886 3.509912,289.972626 
	C2.915441,288.853149 1.848441,287.984619 1.000002,287.000000 
M218.433960,148.499725 
	C218.434402,176.804993 218.504074,205.110596 218.357483,233.415115 
	C218.336502,237.464508 219.405304,238.982574 223.654495,238.859253 
	C233.303513,238.579193 242.967239,238.687485 252.622665,238.814453 
	C255.790054,238.856094 257.026001,237.835571 257.021240,234.517960 
	C256.946136,182.236450 256.938721,129.954758 257.031952,77.673309 
	C257.038574,73.954613 255.461136,73.243088 252.218292,73.293938 
	C242.896469,73.440125 233.562424,73.581482 224.250381,73.246552 
	C219.683197,73.082275 218.289642,74.436378 218.334427,79.068367 
	C218.554993,101.876999 218.434311,124.688942 218.433960,148.499725 
M51.142441,128.539490 
	C46.461304,145.423569 45.896076,162.435867 50.311417,179.406631 
	C56.055054,201.482834 67.256340,219.894669 87.423645,231.778397 
	C94.909805,236.189682 103.031754,238.605225 112.683357,238.609299 
	C96.824821,212.646301 93.881325,184.621185 93.848663,156.147430 
	C93.815857,127.550812 96.704697,99.395538 111.764977,73.322052 
	C105.163513,74.182335 98.647537,74.944710 92.894341,77.455154 
	C70.679161,87.148872 58.337238,105.319168 51.142441,128.539490 
M331.415619,83.073257 
	C319.313019,73.895088 305.556824,72.281044 289.960205,73.808617 
	C306.300568,88.154495 311.305634,106.145058 311.288422,125.998627 
	C311.271149,145.881851 306.245575,163.949295 290.130646,178.334381 
	C304.431305,179.280624 317.167206,178.558273 328.749390,171.227310 
	C358.480103,152.409149 360.184448,106.941917 331.415619,83.073257 
M168.705811,76.741974 
	C163.048935,75.468079 157.392059,74.194183 151.735184,72.920288 
	C151.505844,73.369232 151.276489,73.818176 151.047150,74.267120 
	C155.703766,81.141861 156.740005,88.263962 153.622818,96.008492 
	C149.696228,105.763992 152.773621,115.961655 160.825363,121.170616 
	C169.356949,126.690025 179.932648,125.586517 186.846481,118.455513 
	C193.977676,111.100319 194.741776,100.140793 188.695480,91.461411 
	C183.867828,84.531380 177.145508,80.112328 168.705811,76.741974 
M160.508331,238.795258 
	C167.674377,238.794998 174.847687,238.601425 182.003616,238.870407 
	C185.994186,239.020416 187.156311,237.612900 187.109985,233.702026 
	C186.934296,218.872345 187.076279,204.039017 187.064285,189.207062 
	C187.063431,188.148972 186.778687,187.091125 186.625946,186.033157 
	C176.993698,206.727386 162.819595,223.534683 145.059921,237.548965 
	C145.284317,237.964386 145.508728,238.379807 145.733124,238.795227 
	C150.326462,238.795227 154.919785,238.795227 160.508331,238.795258 
z"/>
<path fill="#000000" opacity="1.000000" stroke="none" 
	d="
M384.000000,20.530960 
	C383.603027,21.039082 382.894440,21.202410 382.853424,21.099556 
	C379.168365,11.857336 372.414612,5.688587 363.753723,1.326608 
	C370.592743,1.000000 377.185455,1.000000 384.000000,1.000000 
	C384.000000,7.352261 384.000000,13.707088 384.000000,20.530960 
z"/>
<path fill="#000000" opacity="1.000000" stroke="none" 
	d="
M1.000002,287.469055 
	C1.848441,287.984619 2.915441,288.853149 3.509912,289.972626 
	C7.425299,297.345886 13.582008,302.345123 20.314289,306.719482 
	C13.738731,307.000000 7.477464,307.000000 1.000000,307.000000 
	C1.000000,300.647644 1.000000,294.292877 1.000002,287.469055 
z"/>
<path fill="#000000" opacity="1.000000" stroke="none" 
	d="
M365.469391,307.000000 
	C365.032928,306.512085 364.918610,305.670929 365.119904,305.587097 
	C374.010803,301.882538 378.995911,294.474365 383.684509,286.737427 
	C384.000000,293.590698 384.000000,300.181366 384.000000,307.000000 
	C377.981476,307.000000 371.960114,307.000000 365.469391,307.000000 
z"/>
<path fill="#000000" opacity="1.000000" stroke="none" 
	d="
M19.530624,1.000000 
	C19.969818,1.486323 20.096727,2.313071 19.886827,2.409929 
	C11.288430,6.377654 5.533890,13.036395 1.325654,21.247606 
	C1.000000,14.409307 1.000000,7.818615 1.000000,1.000000 
	C7.018513,1.000000 13.039881,1.000000 19.530624,1.000000 
z"/>
<path fill="#010501" opacity="1.000000" stroke="none" 
	d="
M218.434006,147.999725 
	C218.434311,124.688942 218.554993,101.876999 218.334427,79.068367 
	C218.289642,74.436378 219.683197,73.082275 224.250381,73.246552 
	C233.562424,73.581482 242.896469,73.440125 252.218292,73.293938 
	C255.461136,73.243088 257.038574,73.954613 257.031952,77.673309 
	C256.938721,129.954758 256.946136,182.236450 257.021240,234.517960 
	C257.026001,237.835571 255.790054,238.856094 252.622665,238.814453 
	C242.967239,238.687485 233.303513,238.579193 223.654495,238.859253 
	C219.405304,238.982574 218.336502,237.464508 218.357483,233.415115 
	C218.504074,205.110596 218.434402,176.804993 218.434006,147.999725 
z"/>
<path fill="#010401" opacity="1.000000" stroke="none" 
	d="
M51.246361,128.149490 
	C58.337238,105.319168 70.679161,87.148872 92.894341,77.455154 
	C98.647537,74.944710 105.163513,74.182335 111.764977,73.322052 
	C96.704697,99.395538 93.815857,127.550812 93.848663,156.147430 
	C93.881325,184.621185 96.824821,212.646301 112.683357,238.609299 
	C103.031754,238.605225 94.909805,236.189682 87.423645,231.778397 
	C67.256340,219.894669 56.055054,201.482834 50.311417,179.406631 
	C45.896076,162.435867 46.461304,145.423569 51.246361,128.149490 
z"/>
<path fill="#010401" opacity="1.000000" stroke="none" 
	d="
M331.702087,83.286804 
	C360.184448,106.941917 358.480103,152.409149 328.749390,171.227310 
	C317.167206,178.558273 304.431305,179.280624 290.130646,178.334381 
	C306.245575,163.949295 311.271149,145.881851 311.288422,125.998627 
	C311.305634,106.145058 306.300568,88.154495 289.960205,73.808617 
	C305.556824,72.281044 319.313019,73.895088 331.702087,83.286804 
z"/>
<path fill="#010501" opacity="1.000000" stroke="none" 
	d="
M169.063858,76.892075 
	C177.145508,80.112328 183.867828,84.531380 188.695480,91.461411 
	C194.741776,100.140793 193.977676,111.100319 186.846481,118.455513 
	C179.932648,125.586517 169.356949,126.690025 160.825363,121.170616 
	C152.773621,115.961655 149.696228,105.763992 153.622818,96.008492 
	C156.740005,88.263962 155.703766,81.141861 151.047150,74.267120 
	C151.276489,73.818176 151.505844,73.369232 151.735184,72.920288 
	C157.392059,74.194183 163.048935,75.468079 169.063858,76.892075 
z"/>
<path fill="#020902" opacity="1.000000" stroke="none" 
	d="
M160.010727,238.795242 
	C154.919785,238.795227 150.326462,238.795227 145.733124,238.795227 
	C145.508728,238.379807 145.284317,237.964386 145.059921,237.548965 
	C162.819595,223.534683 176.993698,206.727386 186.625946,186.033157 
	C186.778687,187.091125 187.063431,188.148972 187.064285,189.207062 
	C187.076279,204.039017 186.934296,218.872345 187.109985,233.702026 
	C187.156311,237.612900 185.994186,239.020416 182.003616,238.870407 
	C174.847687,238.601425 167.674377,238.794998 160.010727,238.795242 
z"/>
</svg>